<svg xmlns="http://www.w3.org/2000/svg" id="chamber-house" enable-background="new 0 0 135 135" viewBox="0 0 135 135">
  <rect width="128" height="3.16" x="3.5" y="119.775" fill="#7a8490"></rect>
  <rect width="13.034" height="11.468" x="21.905" y="13.577" fill="#bebebf"></rect>
  <rect width="13.034" height="11.468" x="41.444" y="13.577" fill="#bebebf"></rect>
  <rect width="13.034" height="11.468" x="60.983" y="13.577" fill="#bebebf"></rect>
  <rect width="13.034" height="11.468" x="80.522" y="13.577" fill="#bebebf"></rect>
  <rect width="13.034" height="11.468" x="100.061" y="13.577" fill="#bebebf"></rect>
  <rect width="1.112" height="8.07" x="22.52" y="15.686" fill="#44433f"></rect>
  <rect width="1.112" height="8.07" x="25.193" y="15.686" fill="#44433f"></rect>
  <rect width="1.112" height="8.07" x="27.866" y="15.686" fill="#44433f"></rect>
  <rect width="1.112" height="8.07" x="30.539" y="15.686" fill="#44433f"></rect>
  <rect width="1.112" height="8.07" x="33.212" y="15.686" fill="#44433f"></rect>
  <rect width="1.112" height="8.07" x="42.059" y="15.686" fill="#44433f"></rect>
  <rect width="1.112" height="8.07" x="44.732" y="15.686" fill="#44433f"></rect>
  <rect width="1.112" height="8.07" x="47.405" y="15.686" fill="#44433f"></rect>
  <rect width="1.112" height="8.07" x="50.078" y="15.686" fill="#44433f"></rect>
  <rect width="1.112" height="8.07" x="52.751" y="15.686" fill="#44433f"></rect>
  <rect width="1.112" height="8.07" x="61.598" y="15.686" fill="#44433f"></rect>
  <rect width="1.112" height="8.07" x="64.271" y="15.686" fill="#44433f"></rect>
  <rect width="1.112" height="8.07" x="66.944" y="15.686" fill="#44433f"></rect>
  <rect width="1.112" height="8.07" x="69.617" y="15.686" fill="#44433f"></rect>
  <rect width="1.112" height="8.07" x="72.29" y="15.686" fill="#44433f"></rect>
  <rect width="1.112" height="8.07" x="81.137" y="15.686" fill="#44433f"></rect>
  <rect width="1.112" height="8.07" x="83.81" y="15.686" fill="#44433f"></rect>
  <rect width="1.112" height="8.07" x="86.483" y="15.686" fill="#44433f"></rect>
  <rect width="1.112" height="8.07" x="89.156" y="15.686" fill="#44433f"></rect>
  <rect width="1.112" height="8.07" x="91.83" y="15.686" fill="#44433f"></rect>
  <rect width="1.112" height="8.07" x="100.676" y="15.686" fill="#44433f"></rect>
  <rect width="1.112" height="8.07" x="103.349" y="15.686" fill="#44433f"></rect>
  <rect width="1.112" height="8.07" x="106.022" y="15.686" fill="#44433f"></rect>
  <rect width="1.112" height="8.07" x="108.696" y="15.686" fill="#44433f"></rect>
  <rect width="1.112" height="8.07" x="111.369" y="15.686" fill="#44433f"></rect>
  <rect width="13.034" height="1.168" x="21.905" y="13.577" fill="#ccc"></rect>
  <rect width="13.034" height="1.168" x="41.444" y="13.577" fill="#ccc"></rect>
  <rect width="13.034" height="1.168" x="60.983" y="13.577" fill="#ccc"></rect>
  <rect width="13.034" height="1.168" x="80.522" y="13.577" fill="#ccc"></rect>
  <rect width="13.034" height="1.168" x="100.061" y="13.577" fill="#ccc"></rect>
  <rect width="111.11" height="77.081" x="11.945" y="42.695" fill="#bebebf"></rect>
  <rect width="24.33" height="32.413" x="55.335" y="87.293" fill="#44433f"></rect>
  <path fill="#44433f" d="M78.3224564,58.0781746v17.9782829H56.6775436V58.0781746
						c0-5.9770699,4.8453751-10.8224411,10.8224487-10.8224411h0.0000153
						C73.4770813,47.2557335,78.3224564,52.1011047,78.3224564,58.0781746z"></path>
  <path fill="#fff" d="M78.8222656,76.5565109H56.1777344V58.0779991c0-6.2431641,5.0791016-11.3222656,11.3222656-11.3222656
						s11.3222656,5.0791016,11.3222656,11.3222656V76.5565109z M57.1777344,75.5565109h20.6445313V58.0779991
						c0-5.6918945-4.6303711-10.3222656-10.3222656-10.3222656s-10.3222656,4.6303711-10.3222656,10.3222656V75.5565109z"></path>
  <rect width="21.645" height="1" x="56.678" y="57.578" fill="#fff"></rect>
  <rect width="1" height="17.979" x="60.785" y="58.078" fill="#fff"></rect>
  <rect width="1" height="17.979" x="73.214" y="58.078" fill="#fff"></rect>
  <rect width="1" height="28.801" x="67" y="47.256" fill="#fff"></rect>
  <polygon fill="#fff" points="67.5 58.785 59.502 50.788 60.209 50.081 67.5 57.371 74.799 50.072 75.506 50.779"></polygon>
  <rect width="21.645" height="28.801" x="24.449" y="47.256" fill="#44433f"></rect>
  <path fill="#fff" d="M46.59375,76.5565109H23.9487305V46.7557335H46.59375V76.5565109z M24.9487305,75.5565109H45.59375
							V47.7557335H24.9487305V75.5565109z"></path>
  <rect width="1" height="28.801" x="29.249" y="47.256" fill="#fff"></rect>
  <rect width="1" height="28.801" x="40.294" y="47.256" fill="#fff"></rect>
  <g>
    <rect width="21.645" height="1" x="24.449" y="54.745" fill="#fff"></rect>
  </g>
  <g>
    <rect width="21.645" height="28.801" x="24.449" y="85.063" fill="#44433f"></rect>
    <path fill="#fff" d="M46.59375,114.3636398H23.9487305V84.5628586H46.59375V114.3636398z M24.9487305,113.3636398H45.59375
							V85.5628586H24.9487305V113.3636398z"></path>
    <rect width="1" height="28.801" x="29.249" y="85.063" fill="#fff"></rect>
    <rect width="1" height="28.801" x="40.294" y="85.063" fill="#fff"></rect>
    <g>
      <rect width="21.645" height="1" x="24.449" y="92.552" fill="#fff"></rect>
    </g>
  </g>
  <g>
    <rect width="21.645" height="28.801" x="88.906" y="47.256" fill="#44433f"></rect>
    <path fill="#fff" d="M111.0512695,76.5565109H88.40625V46.7557335h22.6450195V76.5565109z M89.40625,75.5565109h20.6450195
							V47.7557335H89.40625V75.5565109z"></path>
    <rect width="1" height="28.801" x="93.706" y="47.256" fill="#fff"></rect>
    <rect width="1" height="28.801" x="104.751" y="47.256" fill="#fff"></rect>
    <g>
      <rect width="21.645" height="1" x="88.906" y="54.745" fill="#fff"></rect>
    </g>
    <g>
      <rect width="21.645" height="28.801" x="88.906" y="85.063" fill="#44433f"></rect>
      <path fill="#fff" d="M111.0512695,114.3636398H88.40625V84.5628586h22.6450195V114.3636398z M89.40625,113.3636398h20.6450195
							V85.5628586H89.40625V113.3636398z"></path>
      <rect width="1" height="28.801" x="93.706" y="85.063" fill="#fff"></rect>
      <rect width="1" height="28.801" x="104.751" y="85.063" fill="#fff"></rect>
      <g>
        <rect width="21.645" height="1" x="88.906" y="92.552" fill="#fff"></rect>
      </g>
    </g>
  </g>
  <rect width="111.11" height="17.65" x="11.945" y="25.045" fill="#ccc"></rect>
  <rect width="1.007" height="11.468" x="21.905" y="13.577" fill="#2c2c34" opacity=".08"></rect>
  <rect width="1.007" height="11.468" x="33.932" y="13.577" fill="#2c2c34" opacity=".08"></rect>
  <rect width="1.007" height="11.468" x="41.444" y="13.577" fill="#2c2c34" opacity=".08"></rect>
  <rect width="1.007" height="11.468" x="53.471" y="13.577" fill="#2c2c34" opacity=".08"></rect>
  <rect width="1.007" height="11.468" x="60.983" y="13.577" fill="#2c2c34" opacity=".08"></rect>
  <rect width="1.007" height="11.468" x="73.01" y="13.577" fill="#2c2c34" opacity=".08"></rect>
  <rect width="1.007" height="11.468" x="80.522" y="13.577" fill="#2c2c34" opacity=".08"></rect>
  <rect width="1.007" height="11.468" x="92.549" y="13.577" fill="#2c2c34" opacity=".08"></rect>
  <rect width="1.007" height="11.468" x="100.061" y="13.577" fill="#2c2c34" opacity=".08"></rect>
  <rect width="1.007" height="11.468" x="112.088" y="13.577" fill="#2c2c34" opacity=".08"></rect>
  <g>
    <rect width="6.505" height="11.468" x="15.4" y="13.577" fill="#ccc"></rect>
    <rect width="7.735" height="1.513" x="14.785" y="12.064" fill="#dbdbdb"></rect>
  </g>
  <g>
    <rect width="6.505" height="11.468" x="34.939" y="13.577" fill="#ccc"></rect>
    <rect width="7.735" height="1.513" x="34.324" y="12.064" fill="#dbdbdb"></rect>
  </g>
  <g>
    <rect width="6.505" height="11.468" x="54.478" y="13.577" fill="#ccc"></rect>
    <rect width="7.735" height="1.513" x="53.863" y="12.064" fill="#dbdbdb"></rect>
  </g>
  <g>
    <rect width="6.505" height="11.468" x="74.017" y="13.577" fill="#ccc"></rect>
    <rect width="7.735" height="1.513" x="73.402" y="12.064" fill="#dbdbdb"></rect>
  </g>
  <g>
    <rect width="6.505" height="11.468" x="93.556" y="13.577" fill="#ccc"></rect>
    <rect width="7.735" height="1.513" x="92.941" y="12.064" fill="#dbdbdb"></rect>
  </g>
  <g>
    <rect width="6.505" height="11.468" x="113.095" y="13.577" fill="#ccc"></rect>
    <rect width="7.735" height="1.513" x="112.48" y="12.064" fill="#dbdbdb"></rect>
  </g>
  <rect width="111.11" height="2.297" x="11.945" y="40.398" fill="#dbdbdb"></rect>
  <rect width="111.11" height="2.297" x="11.945" y="25.045" fill="#dbdbdb"></rect>
  <g>
    <rect width="14.424" height="5.213" x="11.945" y="114.563" fill="#dbdbdb"></rect>
    <polygon fill="#ccc" points="24.955 114.563 22.828 48.101 15.486 48.101 13.359 114.563"></polygon>
    <path fill="#dbdbdb" d="M25.2096329,48.7216797c0,1.5763931-1.2613354,2.8377266-2.8377266,2.8377266
					c-1.5653973,0-2.8264561-1.2500648-2.8377285-2.8264542h-0.7543812
					c-0.0112705,1.5763893-1.2613335,2.8264542-2.8377256,2.8264542c-1.5653963,0-2.8377275-1.2613335-2.8377275-2.8377266
					c0-1.5653954,1.2723312-2.826458,2.8377275-2.826458h6.4298353
					C23.9482975,45.8952217,25.2096329,47.1562843,25.2096329,48.7216797z"></path>
    <rect width="6.856" height="3.203" x="15.729" y="42.695" fill="#ccc"></rect>
  </g>
  <g>
    <rect width="14.424" height="5.213" x="44.174" y="114.563" fill="#dbdbdb"></rect>
    <polygon fill="#ccc" points="57.184 114.563 55.057 48.101 47.714 48.101 45.588 114.563"></polygon>
    <path fill="#dbdbdb" d="M57.4383049,48.7216797c0,1.5763931-1.2613335,2.8377266-2.8377266,2.8377266
					c-1.5653954,0-2.8264542-1.2500648-2.8377266-2.8264542h-0.7543793
					c-0.0112724,1.5763893-1.2613373,2.8264542-2.8377304,2.8264542c-1.5653954,0-2.8377266-1.2613335-2.8377266-2.8377266
					c0-1.5653954,1.2723312-2.826458,2.8377266-2.826458h6.4298363
					C56.1769714,45.8952217,57.4383049,47.1562843,57.4383049,48.7216797z"></path>
    <rect width="6.856" height="3.203" x="47.958" y="42.695" fill="#ccc"></rect>
  </g>
  <g>
    <rect width="14.424" height="5.213" x="108.631" y="114.563" fill="#dbdbdb"></rect>
    <polygon fill="#ccc" points="110.045 114.563 112.172 48.101 119.514 48.101 121.641 114.563"></polygon>
    <path fill="#dbdbdb" d="M109.7903671,48.7216797c0,1.5763931,1.2613373,2.8377266,2.8377304,2.8377266
					c1.5653915,0,2.8264542-1.2500648,2.8377228-2.8264542h0.7543793c0.0112762,1.5763893,1.2613373,2.8264542,2.8377304,2.8264542
					c1.5653915,0,2.8377228-1.2613335,2.8377228-2.8377266c0-1.5653954-1.2723312-2.826458-2.8377228-2.826458h-6.4298325
					C111.0517044,45.8952217,109.7903671,47.1562843,109.7903671,48.7216797z"></path>
    <rect width="6.856" height="3.203" x="112.415" y="42.695" fill="#ccc"></rect>
  </g>
  <g>
    <rect width="14.424" height="5.213" x="76.402" y="114.563" fill="#dbdbdb"></rect>
    <polygon fill="#ccc" points="77.816 114.563 79.943 48.101 87.286 48.101 89.412 114.563"></polygon>
    <path fill="#dbdbdb" d="M77.5616913,48.7216797c0,1.5763931,1.2613373,2.8377266,2.8377304,2.8377266
					c1.5653992,0,2.8264542-1.2500648,2.8377228-2.8264542h0.7543869c0.0112686,1.5763893,1.2613297,2.8264542,2.8377228,2.8264542
					c1.5653992,0,2.8377304-1.2613335,2.8377304-2.8377266c0-1.5653954-1.2723312-2.826458-2.8377304-2.826458h-6.4298325
					C78.8230286,45.8952217,77.5616913,47.1562843,77.5616913,48.7216797z"></path>
    <rect width="6.856" height="3.203" x="80.186" y="42.695" fill="#ccc"></rect>
  </g>
  <g>
    <path fill="#44433f" d="M46.2034264 35.926693c.731617 0 1.33004-.2893066 1.794487-.8683128l.9541321.982872c-.7572479.8527794-1.64925 1.2787819-2.6767807 1.2787819-1.0275269 0-1.8740921-.324646-2.5385323-.9735527-.6652145-.6489029-.9976273-1.4678993-.9976273-2.4573708 0-.9890862.339016-1.814682 1.016655-2.4764004.6776428-.6617203 1.5059586-.9925785 2.4861107-.9925785 1.0943222 0 2.0103989.4166813 2.7486191 1.2500439l-.9257851 1.0496655c-.4710464-.5852203-1.0562668-.877634-1.7560425-.877634-.5599747 0-1.0387917.1829052-1.4364433.5487156s-.5964813.8586044-.5964813 1.4791603c0 .6201668.1875648 1.1184006.5630836 1.4935303C45.2143402 35.7391281 45.6690788 35.926693 46.2034264 35.926693zM54.2679367 30.5727463h1.4884834v6.6711731h-1.4884834V34.619175H51.61446v2.6247444h-1.4884834v-6.6711731H51.61446v2.7866783h2.6534767V30.5727463zM62.1507111 37.2439194l-.6201668-1.4414902h-2.7963867l-.6201668 1.4414902h-1.5844002l2.882206-6.6711731h1.4411049l2.8822098 6.6711731H62.1507111zM60.1372032 32.5579033l-.839962 1.937397h1.6702194L60.1372032 32.5579033zM70.482399 33.044487l-1.8038101 3.6456718h-.8873367l-1.794487-3.6456718v4.1994324h-1.4884796v-6.6711731h2.013504l1.7179871 3.6646996 1.7273026-3.6646996h2.0041885v6.6711731H70.482399V33.044487zM76.5334015 37.2439194h-2.9202652v-6.6711731h2.5956192c.4516373 0 .8415222.053978 1.1692734.162323.3273621.108345.5739594.2543583.7393875.4388161.2990189.3436756.4485245.732008.4485245 1.1642227 0 .5219193-.168541.9102516-.5056076 1.1646118-.114563.0889282-.1941681.1448479-.2384415.1669807-.0446548.0221367-.1242676.0590286-.2388229.1095123.4135742.0893173.7428818.2753258.9879227.5584221.2446442.2830963.367363.6345367.367363 1.0547142 0 .4644432-.1592178.8749123-.4772644 1.2310143C78.0921707 37.0369377 77.4494858 37.2439194 76.5334015 37.2439194zM75.1016235 33.2736015h.7063751c.4135742 0 .7207489-.0442696.9211273-.1335869.2003784-.0889282.3005676-.2815399.3005676-.5774498s-.0924225-.4916306-.2768784-.586771c-.1844635-.0955296-.4962921-.1432953-.935112-.1432953h-.7160797V33.2736015zM75.1016235 35.984169h1.0213165c.4259949 0 .7459869-.0528145.9591827-.1576653.2131882-.1048508.3195953-.3118324.3195953-.6205559 0-.3083382-.1130066-.5118217-.3386307-.6104584-.2260056-.0986366-.5871582-.1479568-1.0834427-.1479568h-.8780212V35.984169zM84.998291 30.5727463v1.3265457h-3.3214111v1.3743095h2.987442v1.2690735h-2.987442v1.3840179h3.4262619v1.3172264h-4.9147491v-6.6711731H84.998291zM91.8411102 32.7866325c0 1.0690804-.4232864 1.7595367-1.2690735 2.0713692l1.688858 2.3859177h-1.8321533l-1.4791641-2.1284523h-1.0310211v2.1284523h-1.4884796v-6.6711731h2.5288239c1.0372391 0 1.776619.1751385 2.2189331.5246372C91.6201477 31.4476604 91.8411102 32.0107422 91.8411102 32.7866325zM90.0470047 33.5788307c.1844635-.1654282.276886-.4275513.276886-.7871513 0-.3595963-.0955353-.6061859-.2865906-.7397728-.1906738-.1335869-.5246353-.2003803-1.0018997-.2003803h-1.1168442v1.9754505h1.0881042C89.51577 33.8269768 89.8621597 33.7442627 90.0470047 33.5788307z"></path>
  </g>
  <g>
    <rect width="9.438" height="1.35" x="99.918" y="30.616" fill="#dbdbdb"></rect>
    <rect width="13.213" height="1.35" x="98.031" y="33.195" fill="#dbdbdb"></rect>
    <rect width="9.438" height="1.35" x="99.918" y="35.774" fill="#dbdbdb"></rect>
    <g>
      <rect width="9.438" height="1.35" x="25.936" y="30.616" fill="#dbdbdb"></rect>
      <rect width="13.213" height="1.35" x="24.049" y="33.195" fill="#dbdbdb"></rect>
      <rect width="9.438" height="1.35" x="25.936" y="35.774" fill="#dbdbdb"></rect>
    </g>
  </g>
  <rect width="31.977" height="4.66" x="51.032" y="79.906" fill="#dbdbdb"></rect>
  <rect width="26.482" height="2.73" x="53.779" y="84.563" fill="#ccc"></rect>
</svg>
